<?xml version="1.0" standalone="no"?>
<!DOCTYPE svg PUBLIC "-//W3C//DTD SVG 20010904//EN"
 "http://www.w3.org/TR/2001/REC-SVG-20010904/DTD/svg10.dtd">
<svg version="1.0" xmlns="http://www.w3.org/2000/svg"
 width="728.000000pt" height="728.000000pt" viewBox="0 0 728.000000 728.000000"
 preserveAspectRatio="xMidYMid meet">
<metadata>
Created by potrace 1.14, written by Peter Selinger 2001-2017
</metadata>
<g transform="translate(0.000000,728.000000) scale(0.100000,-0.100000)"
fill="#000000" stroke="none">
<path d="M3419 7276 c-2 -2 -42 -7 -89 -10 -47 -3 -96 -8 -110 -10 -14 -2 -52
-7 -85 -11 -32 -4 -68 -9 -80 -11 -11 -2 -36 -7 -55 -10 -260 -43 -636 -162
-895 -283 -44 -21 -87 -41 -95 -45 -8 -3 -46 -24 -85 -46 -38 -22 -83 -46
-100 -55 -16 -9 -42 -23 -57 -33 -14 -9 -48 -30 -75 -46 -50 -31 -159 -105
-204 -140 -15 -12 -39 -30 -54 -41 -165 -118 -413 -353 -571 -541 -86 -102
-94 -112 -94 -122 0 -5 -6 -12 -13 -15 -6 -2 -30 -31 -52 -63 -22 -33 -46 -65
-52 -72 -7 -7 -25 -34 -40 -60 -15 -26 -30 -49 -33 -52 -20 -17 -229 -392
-236 -425 -1 -5 -19 -46 -39 -90 -20 -44 -40 -89 -45 -100 -13 -32 -62 -164
-64 -178 -2 -6 -6 -21 -10 -32 -19 -49 -63 -195 -70 -230 -3 -11 -13 -58 -24
-105 -18 -73 -30 -138 -47 -236 -2 -12 -7 -48 -10 -80 -4 -33 -9 -68 -11 -78
-25 -135 -24 -795 1 -835 1 -4 6 -36 9 -73 7 -65 10 -86 21 -138 3 -14 7 -36
10 -50 18 -95 29 -147 52 -230 14 -52 26 -102 28 -110 2 -8 15 -49 29 -90 15
-41 29 -84 31 -95 21 -90 204 -485 294 -634 28 -46 51 -88 51 -93 0 -4 5 -8
10 -8 6 0 10 -7 10 -15 0 -8 5 -15 10 -15 6 0 10 -4 10 -9 0 -9 57 -100 70
-111 3 -3 19 -25 35 -50 17 -25 39 -55 50 -67 33 -36 45 -52 45 -58 0 -3 8
-13 18 -23 9 -10 30 -34 45 -53 103 -126 315 -339 447 -448 81 -67 190 -151
195 -151 4 0 13 -6 20 -12 33 -30 45 -38 54 -38 5 0 11 -4 13 -8 4 -11 146
-102 157 -102 5 0 11 -4 13 -8 8 -18 300 -172 438 -230 181 -76 188 -79 445
-161 39 -13 271 -69 310 -75 17 -3 71 -12 120 -20 50 -8 119 -18 155 -22 36
-4 79 -9 95 -11 63 -8 543 -10 615 -2 41 4 102 11 135 14 326 33 782 160 1087
304 36 17 70 31 76 31 6 0 12 3 14 8 2 4 41 26 88 50 47 24 94 48 105 55 11 7
43 27 72 45 30 17 55 32 57 32 4 0 115 73 165 108 36 26 254 194 267 206 7 6
47 43 90 81 148 134 281 277 418 450 76 96 84 107 156 215 100 150 110 166
110 175 0 5 6 16 14 24 15 17 149 269 152 286 1 6 18 44 37 85 36 78 107 259
111 282 1 7 4 18 7 23 4 6 10 24 14 40 5 17 9 32 10 35 1 3 10 32 20 65 11 33
19 62 20 65 1 3 11 48 24 100 13 52 25 104 27 115 2 11 6 31 9 45 3 14 8 42
11 64 3 21 7 48 10 60 2 11 7 48 10 81 4 33 8 62 9 65 18 31 27 574 13 732
-33 362 -119 717 -258 1063 -39 99 -156 341 -181 376 -10 14 -16 28 -13 31 2
3 -2 11 -11 18 -8 7 -15 19 -15 26 0 8 -4 14 -8 14 -4 0 -13 12 -20 28 -6 15
-21 41 -32 57 -11 17 -25 40 -31 53 -7 12 -16 22 -21 22 -4 0 -8 6 -8 13 0 7
-8 22 -18 33 -10 10 -27 35 -39 54 -12 19 -31 45 -43 58 -11 12 -18 22 -15 22
2 0 -4 10 -14 23 -30 34 -54 63 -78 94 -102 133 -333 369 -462 473 -24 19 -48
40 -55 45 -38 35 -157 125 -165 125 -5 0 -11 4 -13 8 -1 5 -32 29 -68 53 -36
24 -68 48 -72 54 -5 6 -8 6 -8 0 0 -6 -4 -5 -8 1 -7 12 -59 45 -102 66 -14 6
-32 17 -40 24 -32 26 -312 164 -440 217 -136 55 -304 115 -349 124 -14 2 -28
6 -33 9 -8 5 -174 49 -218 58 -132 26 -181 35 -220 41 -25 3 -52 8 -60 10 -8
2 -46 7 -85 11 -38 3 -83 8 -100 11 -38 5 -542 13 -546 9z"/>
</g>
</svg>
